<svg width="83" height="15" viewBox="0 0 83 15" fill="none" xmlns="http://www.w3.org/2000/svg">
<path d="M6.57422 14H3.84961V3.41797H0.360352V1.15039H10.0635V3.41797H6.57422V14ZM17.3145 3.98926C17.6777 3.98926 17.9795 4.01562 18.2197 4.06836L18.0176 6.58203C17.8008 6.52344 17.5371 6.49414 17.2266 6.49414C16.3711 6.49414 15.7031 6.71387 15.2227 7.15332C14.748 7.59277 14.5107 8.20801 14.5107 8.99902V14H11.8301V4.17383H13.8604L14.2559 5.82617H14.3877C14.6924 5.27539 15.1025 4.83301 15.6182 4.49902C16.1396 4.15918 16.7051 3.98926 17.3145 3.98926ZM26.2441 14L25.7256 12.6641H25.6553C25.2041 13.2324 24.7383 13.6279 24.2578 13.8506C23.7832 14.0674 23.1621 14.1758 22.3945 14.1758C21.4512 14.1758 20.707 13.9062 20.1621 13.3672C19.623 12.8281 19.3535 12.0605 19.3535 11.0645C19.3535 10.0215 19.7168 9.25391 20.4434 8.76172C21.1758 8.26367 22.2773 7.98828 23.748 7.93555L25.4531 7.88281V7.45215C25.4531 6.45605 24.9434 5.95801 23.9238 5.95801C23.1387 5.95801 22.2158 6.19531 21.1553 6.66992L20.2676 4.85938C21.3984 4.26758 22.6523 3.97168 24.0293 3.97168C25.3477 3.97168 26.3584 4.25879 27.0615 4.83301C27.7646 5.40723 28.1162 6.28027 28.1162 7.45215V14H26.2441ZM25.4531 9.44727L24.416 9.48242C23.6367 9.50586 23.0566 9.64648 22.6758 9.9043C22.2949 10.1621 22.1045 10.5547 22.1045 11.082C22.1045 11.8379 22.5381 12.2158 23.4053 12.2158C24.0264 12.2158 24.5215 12.0371 24.8906 11.6797C25.2656 11.3223 25.4531 10.8477 25.4531 10.2559V9.44727ZM33.2227 14L29.4785 4.17383H32.2822L34.1807 9.77246C34.3916 10.4814 34.5234 11.1523 34.5762 11.7852H34.6289C34.6582 11.2227 34.79 10.5518 35.0244 9.77246L36.9141 4.17383H39.7178L35.9736 14H33.2227ZM45.2021 5.89648C44.6338 5.89648 44.1885 6.07812 43.8662 6.44141C43.5439 6.79883 43.3594 7.30859 43.3125 7.9707H47.0742C47.0625 7.30859 46.8896 6.79883 46.5557 6.44141C46.2217 6.07812 45.7705 5.89648 45.2021 5.89648ZM45.5801 14.1758C43.998 14.1758 42.7617 13.7393 41.8711 12.8662C40.9805 11.9932 40.5352 10.7568 40.5352 9.15723C40.5352 7.51074 40.9453 6.23926 41.7656 5.34277C42.5918 4.44043 43.7314 3.98926 45.1846 3.98926C46.5732 3.98926 47.6543 4.38477 48.4277 5.17578C49.2012 5.9668 49.5879 7.05957 49.5879 8.4541V9.75488H43.251C43.2803 10.5166 43.5059 11.1113 43.9277 11.5391C44.3496 11.9668 44.9414 12.1807 45.7031 12.1807C46.2949 12.1807 46.8545 12.1191 47.3818 11.9961C47.9092 11.873 48.46 11.6768 49.0342 11.4072V13.4814C48.5654 13.7158 48.0645 13.8887 47.5312 14C46.998 14.1172 46.3477 14.1758 45.5801 14.1758ZM54.4482 14H51.7676V0.324219H54.4482V14ZM61.3389 5.89648C60.7705 5.89648 60.3252 6.07812 60.0029 6.44141C59.6807 6.79883 59.4961 7.30859 59.4492 7.9707H63.2109C63.1992 7.30859 63.0264 6.79883 62.6924 6.44141C62.3584 6.07812 61.9072 5.89648 61.3389 5.89648ZM61.7168 14.1758C60.1348 14.1758 58.8984 13.7393 58.0078 12.8662C57.1172 11.9932 56.6719 10.7568 56.6719 9.15723C56.6719 7.51074 57.082 6.23926 57.9023 5.34277C58.7285 4.44043 59.8682 3.98926 61.3213 3.98926C62.71 3.98926 63.791 4.38477 64.5645 5.17578C65.3379 5.9668 65.7246 7.05957 65.7246 8.4541V9.75488H59.3877C59.417 10.5166 59.6426 11.1113 60.0645 11.5391C60.4863 11.9668 61.0781 12.1807 61.8398 12.1807C62.4316 12.1807 62.9912 12.1191 63.5186 11.9961C64.0459 11.873 64.5967 11.6768 65.1709 11.4072V13.4814C64.7021 13.7158 64.2012 13.8887 63.668 14C63.1348 14.1172 62.4844 14.1758 61.7168 14.1758ZM73.3887 3.98926C73.752 3.98926 74.0537 4.01562 74.2939 4.06836L74.0918 6.58203C73.875 6.52344 73.6113 6.49414 73.3008 6.49414C72.4453 6.49414 71.7773 6.71387 71.2969 7.15332C70.8223 7.59277 70.585 8.20801 70.585 8.99902V14H67.9043V4.17383H69.9346L70.3301 5.82617H70.4619C70.7666 5.27539 71.1768 4.83301 71.6924 4.49902C72.2139 4.15918 72.7793 3.98926 73.3887 3.98926ZM82.9336 11.082C82.9336 12.0898 82.582 12.8574 81.8789 13.3848C81.1816 13.9121 80.1357 14.1758 78.7412 14.1758C78.0264 14.1758 77.417 14.126 76.9131 14.0264C76.4092 13.9326 75.9375 13.792 75.498 13.6045V11.3896C75.9961 11.624 76.5557 11.8203 77.1768 11.9785C77.8037 12.1367 78.3545 12.2158 78.8291 12.2158C79.8018 12.2158 80.2881 11.9346 80.2881 11.3721C80.2881 11.1611 80.2236 10.9912 80.0947 10.8623C79.9658 10.7275 79.7432 10.5781 79.4268 10.4141C79.1104 10.2441 78.6885 10.0479 78.1611 9.8252C77.4053 9.50879 76.8486 9.21582 76.4912 8.94629C76.1396 8.67676 75.8818 8.36914 75.7178 8.02344C75.5596 7.67188 75.4805 7.24121 75.4805 6.73145C75.4805 5.8584 75.8174 5.18457 76.4912 4.70996C77.1709 4.22949 78.1318 3.98926 79.374 3.98926C80.5576 3.98926 81.709 4.24707 82.8281 4.7627L82.0195 6.69629C81.5273 6.48535 81.0674 6.3125 80.6396 6.17773C80.2119 6.04297 79.7754 5.97559 79.3301 5.97559C78.5391 5.97559 78.1436 6.18945 78.1436 6.61719C78.1436 6.85742 78.2695 7.06543 78.5215 7.24121C78.7793 7.41699 79.3389 7.67773 80.2002 8.02344C80.9678 8.33398 81.5303 8.62402 81.8877 8.89355C82.2451 9.16309 82.5088 9.47363 82.6787 9.8252C82.8486 10.1768 82.9336 10.5957 82.9336 11.082Z" fill="#BC436A"/>
</svg>
